<?xml version="1.0" standalone="no"?>
<!DOCTYPE svg PUBLIC "-//W3C//DTD SVG 20010904//EN"
 "http://www.w3.org/TR/2001/REC-SVG-20010904/DTD/svg10.dtd">
<svg version="1.0" xmlns="http://www.w3.org/2000/svg"
 width="983.000000pt" height="983.000000pt" viewBox="0 0 983.000000 983.000000"
 preserveAspectRatio="xMidYMid meet">
<metadata>
Created by potrace 1.14, written by Peter Selinger 2001-2017
</metadata>
<g transform="translate(0.000000,983.000000) scale(0.100000,-0.100000)"
fill="#000000" stroke="none">
<path d="M4924 9444 c-115 -113 -392 -387 -615 -607 -704 -697 -1672 -1654
-1897 -1875 -200 -197 -1396 -1379 -1589 -1570 -45 -45 -83 -84 -83 -86 0 -2
9 -14 21 -27 81 -95 108 -127 195 -229 53 -63 115 -137 138 -164 23 -27 46
-54 52 -60 6 -6 77 -90 158 -186 82 -96 168 -197 191 -225 24 -27 100 -117
171 -200 70 -82 148 -175 174 -205 26 -30 89 -104 141 -165 51 -60 96 -112 99
-115 3 -3 16 -18 28 -34 12 -16 44 -54 71 -85 48 -56 238 -278 269 -316 10
-11 46 -54 81 -95 35 -41 83 -97 106 -125 23 -27 87 -102 141 -166 55 -63 119
-139 144 -169 25 -29 50 -58 55 -64 6 -6 48 -56 94 -111 46 -55 105 -125 132
-155 26 -30 116 -136 200 -235 83 -99 166 -196 183 -215 17 -20 51 -60 76 -90
25 -29 126 -149 225 -265 99 -116 239 -280 310 -364 72 -85 137 -161 145 -171
8 -10 74 -86 145 -171 72 -84 148 -174 170 -199 22 -25 58 -68 80 -94 22 -27
45 -54 50 -60 6 -6 75 -87 154 -181 80 -93 148 -174 153 -180 6 -6 11 -6 16 1
4 6 30 38 59 70 28 32 106 124 173 204 67 80 134 159 149 175 14 17 51 59 81
95 30 36 57 67 60 70 3 3 22 26 43 52 21 26 43 53 50 60 7 7 60 69 117 138 58
69 107 127 110 130 4 3 65 75 137 160 165 196 488 577 516 610 12 14 71 84
131 155 60 72 114 135 120 140 6 6 29 33 51 60 21 28 42 52 45 55 5 5 161 188
191 225 18 21 65 77 140 166 26 29 79 92 119 139 40 47 82 96 94 110 11 14 46
55 76 90 30 36 60 70 65 76 6 7 26 32 47 55 20 24 103 123 185 219 82 96 182
215 223 265 41 49 82 96 90 105 8 9 34 38 57 66 106 126 349 414 388 459 23
28 111 131 195 230 83 99 164 194 178 211 15 17 61 71 102 120 41 49 101 119
133 156 l59 68 -27 32 c-15 18 -75 85 -134 148 -90 97 -176 191 -216 236 -5 6
-53 57 -105 114 -52 56 -102 111 -110 120 -8 10 -55 61 -105 115 -49 53 -99
107 -110 119 -53 59 -441 482 -460 502 -5 6 -46 50 -90 99 -44 48 -91 100
-105 115 -14 15 -65 71 -115 125 -49 54 -101 110 -115 125 -14 15 -45 50 -70
77 -25 27 -88 96 -140 152 -52 57 -102 111 -110 121 -8 9 -58 63 -110 120 -52
57 -102 111 -110 120 -8 10 -58 64 -110 120 -52 56 -103 112 -113 124 -10 11
-35 39 -56 61 -20 22 -91 99 -156 170 -66 72 -124 135 -130 141 -18 19 -179
196 -196 215 -9 11 -58 64 -109 119 -51 55 -100 108 -109 119 -20 22 -172 188
-225 245 -21 22 -73 79 -115 125 -42 46 -89 99 -106 117 -16 17 -48 51 -70 75
-21 24 -89 98 -150 164 -60 66 -114 124 -120 131 -108 119 -150 164 -155 164
-4 0 -101 -93 -216 -206z"/>
</g>
</svg>
